<?xml version="1.0" encoding="utf-8"?>
<!-- Generator: Adobe Illustrator 24.2.3, SVG Export Plug-In . SVG Version: 6.00 Build 0)  -->
<svg version="1.1" id="Layer_1" xmlns="http://www.w3.org/2000/svg" xmlns:xlink="http://www.w3.org/1999/xlink" x="0px" y="0px"
	 viewBox="0 0 1175 511.9" style="enable-background:new 0 0 1175 511.9;" xml:space="preserve">
<path d="M248,8C111,8,0.1,119,0.1,256s111,248,248,248s248-111,248-248S385,8,248,8z M248,455.9c-110.3,0-200-89.7-200-200
	S137.7,56,248,56s200,89.7,200,200S358.3,455.9,248,455.9z M168,240c17.7,0,32-14.3,32-32s-14.3-32-32-32s-32,14.3-32,32
	S150.4,240,168,240z M328,240c17.7,0,32-14.3,32-32s-14.3-32-32-32s-32,14.3-32,32S310.3,240,328,240z M332,312.6
	c-38.5,46.4-107.4,52.8-153.8,14.2c-5.2-4.3-9.9-9.1-14.2-14.2c-8.5-10.2-23.6-11.6-33.8-3.1c-10.2,8.5-11.6,23.6-3.1,33.8
	C182.8,410,282,419,348.8,363.4c7.3-6.1,14-12.8,20.1-20.1c8.5-10.2,7.1-25.3-3.1-33.8C355.6,301,340.5,302.4,332,312.6z"/>
<path d="M1157.9,414.8H915.4c-0.7,19.8-14.7,32-32.7,32H822c-18.7,0-33-17.5-32.8-32H550c-8.8,0-16,7.2-16,16v16
	c0.1,35.3,28.7,63.9,64,64h511.9c35.3-0.1,63.9-28.7,64-64v-16C1173.9,422,1166.7,414.8,1157.9,414.8z M1109.9,46.9
	c-0.1-26.5-21.5-47.9-48-48H646c-26.5,0.1-47.9,21.5-48,48v336h511.9V46.9z M1045.9,318.9H662v-256h384V318.9z"/>
</svg>
