<svg id="Layer_1" data-name="Layer 1" xmlns="http://www.w3.org/2000/svg" width="414.5mm" height="180.6mm" viewBox="0 0 1175 512">
  <defs>
    <style>
      .cls-1 {
        fill: #fff;
      }
    </style>
  </defs>
  <g id="_9M9dDw" data-name="9M9dDw">
    <path d="M1009.9,313.3v62.1l-4.9.3H916c-3.6.1-5.3-1.3-6.4-4.6-2.7-8.2-5.6-16.3-8.6-24.8-22.1,6.4-44.1,6.2-66.4-.2L827.3,370c-1.7,5.7-1.7,5.7-7.8,5.7H762.7c1.6-4.7,3-8.6,4.5-13.1l-1.9.7c-14.7,10.4-31.3,14.8-49.1,15.6-28.7,1.4-55.3-5.6-80.4-19l-2.3-1.5c7.3-14.1,14.5-28.2,22-42.5,5.3,2.7,10.2,5.5,15.3,7.9,16,7.5,32.8,10.2,50.2,6.3,5.4-1.2,10.5-3.7,12.1-10.1,1.1-4.5.3-8.6-3.7-11a93.2,93.2,0,0,0-15.8-7.9c-14.9-5.9-30.2-10.6-44.8-17.1s-26-17.3-31.5-33.1c-10.6-29.9,3.9-61.6,34.3-75.2a100.8,100.8,0,0,1,37-8.8c28.1-1.3,54.7,4.7,80.2,16l2.8,1.4,1.2,1.1c-8,13.7-16.2,27.5-24.5,41.6l-4.6-1.9c-16.6-7.9-34-12.4-52.5-10.9a35.7,35.7,0,0,0-13.5,4c-6.3,3.4-6.9,10.5-.9,14.5a102.9,102.9,0,0,0,19.7,10.4c14,5.7,28.4,10.3,42.2,16.3s27.5,17.1,33.1,33.5c.1.3.6.5,1.2,1.1l10.6-27.9q17.4-45.9,34.7-91.7c1.2-3.1,2.8-4.4,6.3-4.3,16,.1,32.1.2,48.1-.1,4.2,0,6,1.5,7.3,5.2q24.6,67.4,49.4,134.5a10.3,10.3,0,0,0,2.4,4.1V170.4l4.4-.3c24.1,0,48.2-.2,72.3.2,15.3.2,30.3,2.5,44.6,8.3,21.7,8.6,34.1,24.5,37.6,47.4,2.1,13.9,2,27.8-2.6,41.4-7.9,23.1-25,35.9-47.9,42.2-13.4,3.7-27.1,3.4-40.8,3.7Zm0-48.4c9.4,1.3,23.4.3,30.5-2.3s12-6.5,14.1-13.8c3.7-13.4,0-27.5-17.5-31.3-7.6-1.6-15.6-1.1-23.5-1.7-3-.2-4,.9-3.9,4,.1,13.9,0,27.9.1,41.8C1009.7,262.7,1009.8,263.9,1009.9,264.9ZM849.6,299.5a57.7,57.7,0,0,0,37.6.1l-18.4-57.8h-.9C861.9,260.9,855.8,280,849.6,299.5Z"/>
  </g>
  <g id="e9fbjV">
    <g>
      <path d="M561.2,379.1H30.3V166.7H561.2ZM295.8,177.2v.3H284.3c-8.5.2-17,.4-25.4.8-10.4.6-20.8,1.4-31.1,2.3-13.4,1.2-26.8,3-40.1,5.3a442.1,442.1,0,0,0-54.4,12.6,269.4,269.4,0,0,0-38.9,15c-12.3,5.9-23.9,12.8-34,22A63.8,63.8,0,0,0,46,253.4c-4.9,9.3-6.5,19-3.9,29.2,2.1,7.9,6.2,14.6,11.5,20.7,6.7,7.9,14.8,14.1,23.6,19.6,14.1,8.8,29.2,15.3,44.9,20.7a389.8,389.8,0,0,0,55.2,14.5c15.1,2.9,30.4,5.2,45.7,6.6,12,1.2,24,2.1,36,2.8s21.4.9,32.1.9,21.6-.1,32.3-.5c8.7-.3,17.4-.8,26-1.4,12.5-.9,25-2.2,37.4-3.9a474.3,474.3,0,0,0,66.6-13.8c18.8-5.5,37.2-12.3,54.4-22,9.2-5.2,17.9-11.1,25.5-18.6,5.7-5.6,10.6-11.8,13.8-19.1a40.4,40.4,0,0,0,3.5-18.1,43.2,43.2,0,0,0-7.1-21.1,77.7,77.7,0,0,0-19.2-20A155.7,155.7,0,0,0,492,211.1c-21.1-9.5-43.2-16-65.9-20.9a518,518,0,0,0-58.4-9.2c-13.6-1.5-27.2-2.5-40.9-3C316.5,177.6,306.1,177.4,295.8,177.2Z"/>
      <path d="M158.2,311.3c1.4-3.1,1-6.2,1-9.3V240.1a36,36,0,0,0-.7-5.5h47.2c0,.1.1.1,0,.2a17.5,17.5,0,0,0-.9,6.8c.1,8.6,0,17.1,0,25.6v1.2l.3.2,2.1-2.7,18.2-23.4a21.8,21.8,0,0,0,4.1-7.5,1.3,1.3,0,0,1,.7-.5h49a47.5,47.5,0,0,0-3.9,3.4q-4.7,4.8-9,9.9l-14.8,17.7c-.5.5-.6.8-.2,1.4l26.2,38.7c1.4,2,3.1,3.8,4.7,5.8H226.4c-1,0-1.3-.3-1.5-1.3a23.6,23.6,0,0,0-3.8-8L205.5,279l-.7-.7v1.4c0,7.8,0,15.5.1,23.2,0,2.8-.3,5.7,1,8.4Z"/>
      <path d="M514.9,311.4H466.2c-1,0-1.3-.3-1.4-1.4a18.3,18.3,0,0,0-.9-3.9l-2.5-6.1a1.1,1.1,0,0,0-1.2-.8H433.1a1.4,1.4,0,0,0-1.1.7c-1,2.6-1.9,5.3-2.8,8a5.2,5.2,0,0,0-.3,2.5c0,.8-.4,1-1.1,1H389.7V311c2.2-2.6,3.1-5.9,4.3-9,5.1-13.7,10.2-27.4,15.2-41,2.6-7,5.2-13.9,7.7-20.8a42.1,42.1,0,0,0,1.2-5.1c0-.2.3-.4.6-.5h65.8c.2,4.7,2.5,8.6,4.1,12.6,7.4,19.1,14.9,38.1,22.3,57.1A25.7,25.7,0,0,0,514.9,311.4Zm-76.6-28.5h16.3c-2.8-7.4-5.7-14.8-8.4-21.7Z"/>
      <path d="M383.2,255.7c-2.9-1.2-5.6-1-8.4-1H339.2c-1.6,0-1.6,0-1.6,1.7v7.2c-.1,1,.3,1.3,1.2,1.3h34.6c1.5,0,1.5,0,1.5,1.5v13.5c.1,1-.3,1.2-1.2,1.2H339.1c-1.5,0-1.5,0-1.5,1.6v7.3c-.1.9.2,1.2,1.1,1.2h39.5a29.4,29.4,0,0,0,4.9-.8c0,.2.1.6.1.9v19c.1,1.1-.4,1.3-1.4,1.3H291.1c0-.2-.1-.4,0-.5a17.1,17.1,0,0,0,.9-6.4V244.8c0-3.5.4-7-1.2-10.4h91c1.4,0,1.4,0,1.4,1.4v19.9Z"/>
      <path d="M135.3,234.6c-1.5,4-1,8.1-1,12.1-.1,18.7-.1,37.5-.1,56.3a31.7,31.7,0,0,0,.2,4.4,27,27,0,0,0,.8,3.9H83.6c0-.1-.1-.2,0-.2a16.3,16.3,0,0,0,.9-6.6c0-21.1,0-42.1-.1-63.2,0-2.2-.3-4.4-.5-6.7Z"/>
      <path d="M495.2,240.5c-.3-5.2,4.1-10.4,10.8-10.1s10.2,4.9,9.9,10.4a10.2,10.2,0,0,1-11,10.1A10.1,10.1,0,0,1,495.2,240.5Zm2.1-.2a8.3,8.3,0,1,0,8.2-7.8A7.7,7.7,0,0,0,497.3,240.3Z"/>
      <path class="cls-1" d="M497.3,240.3a7.7,7.7,0,0,1,8.2-7.8,8.1,8.1,0,1,1-8.2,7.8Zm10.8,1.6.6-.5a3.8,3.8,0,0,0,1.2-4.5c-.6-1.7-2-2.5-4-2.5h-3.1c-.9,0-1.1.3-1.1,1.2v9.9c0,.7,0,1.2,1,1.2s.9-.5.8-1.1v-1.4c0-2,.1-2,2-1.8a1.3,1.3,0,0,1,1,.6,20.1,20.1,0,0,1,1.4,2.5c.8,1.3.9,1.4,2.7,1C509.7,244.9,508.9,243.4,508.1,241.9Z"/>
      <path d="M508.1,241.9c.8,1.5,1.6,3,2.5,4.5-1.8.4-1.9.3-2.7-1a20.1,20.1,0,0,0-1.4-2.5,1.3,1.3,0,0,0-1-.6c-1.9-.2-2-.2-2,1.8v1.4c.1.6,0,1.1-.8,1.1s-1-.5-1-1.2v-9.9c0-.9.2-1.2,1.1-1.2h3.1c2,0,3.4.8,4,2.5a3.8,3.8,0,0,1-1.2,4.5Zm-4.6-3.5c.1,2.4-.4,2.1,2.2,2.1h1.1a2,2,0,0,0,1.4-2.6c-.4-1.1-1.1-1.5-2.6-1.5S503.6,236.1,503.5,238.4Z"/>
      <path class="cls-1" d="M503.5,238.4c.1-2.3-.2-2,2.1-2.1s2.2.4,2.6,1.5a2,2,0,0,1-1.4,2.6h-1.1C503.1,240.5,503.6,240.8,503.5,238.4Z"/>
    </g>
  </g>
</svg>
